<svg xmlns="http://www.w3.org/2000/svg" width="1080" height="1080" viewBox="0 0 1080 1080">
  <rect width="1080" height="1080" fill="#0C0C0C"/>
  <rect x="0" y="0" width="1080" height="4" fill="#D4FF00"/>
  <rect x="0" y="1076" width="1080" height="4" fill="#D4FF00"/>
  <rect x="80" y="80" width="3" height="920" fill="#FFFFFF" opacity="0.2"/>

  <!-- Eyebrow -->
  <rect x="108" y="100" width="200" height="36" rx="4" fill="#D4FF00" opacity="0.12"/>
  <text x="208" y="124" font-family="'Courier New', monospace" font-size="13" fill="#D4FF00" text-anchor="middle" letter-spacing="2">DAY 14</text>

  <!-- Big stat -->
  <text x="540" y="370" font-family="Georgia, serif" font-size="220" fill="#D4FF00" text-anchor="middle" font-weight="bold">$0</text>

  <!-- Label -->
  <text x="540" y="430" font-family="'Courier New', monospace" font-size="16" fill="#888888" text-anchor="middle" letter-spacing="3">REVENUE AT DAY 14</text>

  <rect x="108" y="460" width="864" height="1" fill="#242424"/>

  <!-- Context rows -->
  <rect x="108" y="475" width="864" height="60" rx="4" fill="#141414"/>
  <text x="128" y="511" font-family="Georgia, serif" font-size="20" fill="#F2F2EE">Affiliate system live since: end of week 2</text>
  <text x="940" y="511" font-family="'Courier New', monospace" font-size="16" fill="#888888" text-anchor="end">expected</text>

  <rect x="108" y="547" width="864" height="60" rx="4" fill="#0C0C0C"/>
  <text x="128" y="583" font-family="Georgia, serif" font-size="20" fill="#F2F2EE">Traffic: zero (because audience = zero)</text>
  <text x="940" y="583" font-family="'Courier New', monospace" font-size="16" fill="#888888" text-anchor="end">expected</text>

  <rect x="108" y="619" width="864" height="60" rx="4" fill="#141414"/>
  <text x="128" y="655" font-family="Georgia, serif" font-size="20" fill="#F2F2EE">Content published: 2 articles, 6 posts, 2 threads</text>
  <text x="940" y="655" font-family="'Courier New', monospace" font-size="16" fill="#D4FF00" text-anchor="end">✓</text>

  <rect x="108" y="691" width="864" height="60" rx="4" fill="#0C0C0C"/>
  <text x="128" y="727" font-family="Georgia, serif" font-size="20" fill="#F2F2EE">System working without breaking</text>
  <text x="940" y="727" font-family="'Courier New', monospace" font-size="16" fill="#D4FF00" text-anchor="end">✓</text>

  <!-- Conclusion -->
  <rect x="108" y="772" width="864" height="100" rx="4" fill="#141414"/>
  <rect x="108" y="772" width="4" height="100" fill="#D4FF00"/>
  <text x="128" y="808" font-family="'Courier New', monospace" font-size="13" fill="#888888" letter-spacing="1">THE ONLY METRIC THAT MATTERS</text>
  <text x="128" y="838" font-family="Georgia, serif" font-size="22" fill="#F2F2EE">Did content go out every week,</text>
  <text x="128" y="864" font-family="Georgia, serif" font-size="22" fill="#D4FF00">on schedule, without breaking?</text>

  <text x="111" y="1055" font-family="'Courier New', monospace" font-size="14" fill="#555555">leveragedbuilder.com</text>
  <text x="972" y="1055" font-family="Georgia, serif" font-size="28" fill="#242424" text-anchor="end" font-weight="bold">LB</text>
</svg>